<svg width="108" height="25" viewBox="0 0 108 25" fill="none" xmlns="http://www.w3.org/2000/svg">
<g clip-path="url(#clip0_738_168)">
<path d="M36.0292 5.56738H42.1224C43.4764 5.56738 44.5041 5.85754 45.2053 6.43784C45.8591 7.01815 46.186 7.92488 46.186 9.15803C46.186 9.95595 46.0288 10.5967 45.7145 11.0803C45.3941 11.5988 44.8875 11.9752 44.2985 12.1321C44.7797 12.2881 45.1988 12.5929 45.4954 13.0026C45.7145 13.4378 45.8465 14.066 45.8958 14.8885L46.0046 17.3548C46.0279 17.7417 46.1608 18.0198 46.4036 18.189H43.3135C43.1925 17.9515 43.1187 17.6929 43.0959 17.4274C43.0465 17.2339 43.0103 16.5207 42.987 15.2875C42.9377 14.4896 42.7926 13.9576 42.5518 13.6917C42.2849 13.4247 42.0615 13.2927 41.3607 13.2927H38.9162V18.189H36.0292V5.56738ZM41.5189 10.6929C41.9991 10.6929 42.3792 10.5914 42.6548 10.3883C42.8773 10.1658 42.9885 9.8423 42.9885 9.41771C42.9885 8.99312 42.8773 8.67927 42.6548 8.47617C42.4343 8.2542 42.0919 8.14394 41.6306 8.14394H38.9162V10.6929H41.5189Z" fill="#868E96"/>
<path d="M57.9807 14.3807C57.6141 15.788 57.0019 16.8132 56.144 17.4564C55.1343 18.1334 53.9408 18.4719 52.5636 18.4719C48.8041 18.3462 46.9244 16.1715 46.9244 11.9478C46.9244 7.72416 48.822 5.59637 52.6172 5.56445C56.5594 5.56639 58.4087 8.00125 58.165 12.8691H50.1306C50.2525 14.7667 51.0789 15.7155 52.61 15.7155C53.3441 15.7155 54.0172 15.4253 54.6294 14.845C54.7611 14.6959 54.924 14.5775 55.1065 14.4983C55.289 14.4191 55.4867 14.3809 55.6856 14.3866L57.9807 14.3807ZM54.8587 10.616C54.6759 8.96408 53.9108 8.13811 52.5636 8.13811C51.2163 8.13811 50.4208 8.96408 50.1771 10.616H54.8587Z" fill="#868E96"/>
<path d="M68.3682 18.1905C67.3266 18.1296 66.8063 17.6092 66.8072 16.6295V10.2461C66.7463 8.96072 66.0272 8.31803 64.6499 8.31803C63.2727 8.31803 62.5686 8.96169 62.5376 10.249V18.1905H59.3706V10.8917C59.3706 7.34119 61.1454 5.56642 64.6949 5.56738C68.2444 5.56835 70.0042 7.34312 69.9742 10.8917V18.1905H68.3682Z" fill="#868E96"/>
<path d="M82.4885 12.0392C82.4885 16.3238 80.6064 18.4661 76.8422 18.4661C73.0779 18.4661 71.1958 16.3238 71.1958 12.0392C71.1958 7.72467 73.0779 5.56738 76.8422 5.56738C80.6064 5.56738 82.4885 7.72467 82.4885 12.0392ZM74.3643 12.0392C74.3943 14.4572 75.2052 15.6662 76.7972 15.6662C78.3892 15.6662 79.2001 14.4267 79.2301 11.9478C79.2301 9.5299 78.4346 8.32093 76.8436 8.32093C75.1907 8.32093 74.3638 9.56037 74.3628 12.0392H74.3643Z" fill="#868E96"/>
<path d="M86.6754 18.1908L82.3231 5.75049H85.7614L88.2872 14.4725L90.4474 6.85307C90.6921 6.11705 91.197 5.74952 91.962 5.75049H94.395L89.9875 18.1908H86.6754Z" fill="#868E96"/>
<path d="M105.062 14.3808C104.695 15.788 104.083 16.8133 103.227 17.4564C102.217 18.1334 101.024 18.472 99.6464 18.472C95.8812 18.3501 93.999 16.1773 94 11.9537C94.001 7.73002 95.8981 5.60223 99.6914 5.57031C103.64 5.57031 105.492 8.00324 105.246 12.8691H97.2163C97.3382 14.7667 98.1642 15.7155 99.6943 15.7155C100.43 15.7155 101.104 15.4254 101.715 14.845C101.847 14.6959 102.009 14.5775 102.191 14.4982C102.374 14.419 102.571 14.3809 102.77 14.3866L105.062 14.3808ZM101.941 10.6161C101.757 8.96413 100.992 8.13817 99.6464 8.13817C98.301 8.13817 97.505 8.96413 97.2584 10.6161H101.941Z" fill="#868E96"/>
<path d="M26.3861 14.0185C26.6082 13.6078 26.9677 13.2884 27.4016 13.1161H27.4103C29.1701 12.456 30.3568 10.9139 30.586 8.9887C30.7053 8.06974 30.5687 7.13568 30.1911 6.28942C29.8135 5.44315 29.2097 4.71752 28.4461 4.19247C27.6685 3.63004 26.7416 3.31095 25.7825 3.27558C25.5963 3.27139 25.4136 3.22368 25.2491 3.13627C25.0846 3.04885 24.9429 2.92417 24.8352 2.77217C24.2686 2.0553 23.5468 1.4763 22.724 1.07876C21.9013 0.681216 20.9991 0.475487 20.0854 0.47706C19.0767 0.478368 18.0838 0.727463 17.194 1.20244C17.025 1.30064 16.8338 1.35453 16.6384 1.35912C16.4385 1.35454 16.2434 1.2975 16.0726 1.19374C15.3472 0.788974 14.5522 0.623587 13.3248 0.623587H13.3103C11.8349 0.651151 10.3043 1.56513 9.41791 2.95351C9.31843 3.1277 9.17702 3.27427 9.00651 3.37992C8.836 3.48557 8.6418 3.54695 8.44154 3.55848C7.32673 3.66458 6.27622 4.12876 5.44716 4.88158C4.61814 5.6233 4.07123 6.62897 3.8992 7.72798C3.81799 8.29474 3.58431 8.82879 3.22314 9.27305C2.79342 9.82788 2.48338 10.4658 2.31258 11.1465C2.14179 11.8271 2.11395 12.5358 2.23082 13.2278C2.33624 13.9023 2.57981 14.5477 2.94629 15.1236C3.31276 15.6995 3.79424 16.1936 4.36054 16.5747C4.57982 16.7055 4.76844 16.8818 4.91361 17.0918C5.05879 17.3019 5.15713 17.5406 5.20199 17.7919C5.48343 19.1353 6.51783 20.0029 7.83657 20.0029C8.00812 20.0024 8.17937 19.9883 8.34869 19.9608C9.71532 19.7606 10.6801 18.7668 11.6144 17.805L11.9611 17.4467C12.3248 17.082 12.7955 16.8431 13.3045 16.7648C13.4507 16.7422 13.5848 16.6704 13.6846 16.5611C13.7843 16.4519 13.8437 16.3118 13.8529 16.1642C13.858 16.0784 13.8454 15.9925 13.8156 15.9118C13.7859 15.8312 13.7398 15.7575 13.6803 15.6956C13.6193 15.6319 13.5461 15.5813 13.4651 15.5466C13.3841 15.512 13.2969 15.4941 13.2088 15.4939C13.1749 15.4918 13.141 15.4918 13.1072 15.4939C12.3974 15.5907 11.734 15.9014 11.2053 16.3847C10.9473 16.6132 10.7018 16.8553 10.4697 17.1101C9.91987 17.6904 9.35117 18.291 8.53294 18.5753C8.30578 18.655 8.06714 18.6972 7.82642 18.7001C7.04591 18.7001 6.51058 18.1778 6.39597 17.3001C6.19286 15.7275 6.65855 14.3478 7.74082 13.312C8.10378 12.9524 8.53404 12.6679 9.00701 12.4748C9.47998 12.2816 9.98639 12.1835 10.4973 12.1862C11.1258 12.2014 11.7476 12.319 12.3383 12.5344C13.5395 12.9362 14.4535 13.7762 15.3385 14.5901C15.5256 14.7613 15.7186 14.9397 15.9101 15.108C17.0402 16.1729 18.2835 16.8881 19.4137 17.126L19.4456 17.1333C19.9043 17.2312 20.3722 17.2798 20.8412 17.2784C21.9715 17.2779 23.081 16.9744 24.0541 16.3995C25.0273 15.8247 25.8285 14.9995 26.3745 14.0098L26.3861 14.0185ZM24.0532 11.8235L24.0344 11.8133H24.0242L23.9531 11.7727L23.6325 11.5638L23.6456 11.5507L23.3177 11.3621L23.5832 11.0938C23.8883 10.7874 24.1521 10.4426 24.368 10.0681V9.99407L24.4362 9.9462C24.4522 9.91718 24.4667 9.88672 24.4827 9.85625C24.5212 9.76201 24.5358 9.6597 24.5252 9.55844C24.5145 9.45717 24.479 9.36012 24.4217 9.27595C24.3563 9.18642 24.2707 9.11352 24.1719 9.06313C24.0732 9.01273 23.9639 8.98624 23.853 8.98579C23.7425 8.98548 23.634 9.0153 23.5392 9.07205C23.4443 9.12879 23.3668 9.21032 23.3148 9.30786C23.0669 9.76894 22.7306 10.1767 22.3251 10.5077C21.9196 10.8388 21.4528 11.0867 20.9515 11.2374H20.9384H20.9254C20.6579 11.291 20.3858 11.3187 20.113 11.3201C18.9857 11.3201 18.0558 10.8022 17.2709 9.73584C17.2129 9.65482 17.1362 9.58902 17.0473 9.54405C16.9583 9.49909 16.8599 9.47629 16.7602 9.4776C16.6616 9.47833 16.5642 9.49916 16.4739 9.53882C16.3836 9.57848 16.3023 9.63614 16.2351 9.70827C16.1751 9.77527 16.1302 9.85437 16.1034 9.94022C16.0766 10.0261 16.0686 10.1167 16.0798 10.2059C16.0892 10.2957 16.1168 10.3826 16.1611 10.4612L16.3061 10.6455L16.3192 10.6629C17.3812 11.9816 18.5954 12.6229 20.0332 12.6229C20.4857 12.6192 20.9362 12.5617 21.3751 12.4517C21.5399 12.4112 21.7088 12.3897 21.8785 12.3878C22.222 12.3895 22.5559 12.5008 22.8317 12.7056C23.412 13.0668 24.0257 13.251 24.7322 13.4643L25.1166 13.5789L24.886 13.9082C24.1116 14.9654 22.957 15.6808 21.6656 15.9035C20.3742 16.1262 19.0467 15.8389 17.9629 15.1022C17.3913 14.6771 16.8502 14.1897 16.325 13.7182C15.1223 12.6374 13.9849 11.616 12.4645 11.2142H12.4558L12.3485 11.1852C12.2618 11.1624 12.1781 11.1297 12.0989 11.088C11.4512 10.8807 10.7671 10.812 10.0911 10.8863L9.71967 10.9545C7.54352 11.3534 5.96219 12.8028 5.27597 15.0355L5.17442 15.3619L4.86831 15.2168C3.83101 14.6989 3.20863 12.9261 3.56262 11.4985C3.95288 9.88382 5.30354 8.75512 6.83555 8.75512C6.98748 8.75494 7.13923 8.76561 7.28964 8.78704H7.30124H7.34622L7.44052 8.80445H7.49129C7.64949 8.80427 7.80204 8.74563 7.91961 8.63978C8.03719 8.53394 8.11149 8.38837 8.12823 8.23106C8.14496 8.07375 8.10296 7.91581 8.01029 7.78759C7.91763 7.65938 7.78083 7.56994 7.62621 7.53648C7.38688 7.49346 7.14397 7.47354 6.90083 7.477C6.67596 7.477 6.44094 7.48861 6.21462 7.50021L5.92447 7.51472H5.91141C5.83177 7.51236 5.75457 7.48663 5.68944 7.44073C5.67058 7.42912 5.64447 7.41317 5.60675 7.39431L5.35722 7.26083L5.48488 7.00695C6.14498 5.67805 7.48549 4.81775 8.88838 4.81775H8.98558C9.06939 4.81835 9.15317 4.81448 9.23656 4.80614H9.29024H9.3004H9.31055C9.32416 4.80167 9.33728 4.79584 9.34972 4.78873H9.37003C9.39905 4.78873 9.42806 4.77713 9.46724 4.76552H9.48029L9.53977 4.74956H9.55573C9.60796 4.73215 9.66599 4.71184 9.72257 4.68718C9.85731 4.63273 9.98416 4.56052 10.0998 4.47247C10.1692 4.42083 10.2346 4.36409 10.2956 4.30273C10.3161 4.28301 10.3355 4.26218 10.3537 4.24034L10.3899 4.19827C10.4073 4.17796 10.4247 4.1562 10.4392 4.13589C10.555 3.98477 10.6452 3.81568 10.7062 3.63537C10.7467 3.46329 10.8212 3.30102 10.9253 3.15807L10.9354 3.14502L10.9456 3.13341C11.2912 2.74187 11.7151 2.42712 12.1899 2.20947C12.6646 1.99183 13.1798 1.87611 13.702 1.86979C15.6925 1.86979 17.3289 3.43372 17.4972 5.50686C17.5161 5.66791 17.5945 5.81609 17.717 5.9223C17.8396 6.0285 17.9974 6.08507 18.1595 6.08089C18.3216 6.07671 18.4763 6.01209 18.5932 5.8997C18.7101 5.78732 18.7807 5.6353 18.7913 5.47349C18.7913 5.42852 18.7913 5.38355 18.7826 5.33857V5.28634C18.6857 4.37089 18.3616 3.49418 17.8396 2.7359L17.6641 2.46751L17.9542 2.32243C18.6079 1.9643 19.34 1.77341 20.0854 1.76679C20.7998 1.77135 21.504 1.93613 22.1463 2.24897C22.7886 2.56182 23.3525 3.01476 23.7964 3.57444L23.8371 3.62522C23.9169 3.72822 23.9908 3.83123 24.0576 3.93423C24.2836 4.19899 24.5643 4.41159 24.8803 4.55736C25.1964 4.70312 25.5404 4.7786 25.8884 4.77858C25.9262 4.77858 25.9624 4.77858 25.9987 4.77858L26.2889 4.74231H26.3396C27.4147 4.77277 28.6507 5.79991 29.0961 7.03742C29.3737 7.77807 29.4123 8.58708 29.2065 9.3508C29.0006 10.1145 28.5607 10.7946 27.9485 11.2954C27.2659 11.8574 26.4114 12.1686 25.5272 12.1775C25.0143 12.1822 24.5081 12.0606 24.0532 11.8235Z" fill="#868E96"/>
<path d="M17.3058 18.1922C17.4139 18.0835 17.4745 17.9364 17.4745 17.7831C17.4745 17.6298 17.4139 17.4827 17.3058 17.374L17.2971 17.3653C17.2431 17.3111 17.1791 17.2681 17.1085 17.2388C17.0379 17.2094 16.9622 17.1943 16.8858 17.1943C16.8093 17.1943 16.7337 17.2094 16.6631 17.2388C16.5925 17.2681 16.5284 17.3111 16.4745 17.3653C15.9914 17.844 15.2355 18.5984 14.5029 19.3281C13.747 20.0825 12.9665 20.8616 12.4515 21.3708L12.2702 21.5507L12.2092 21.3026C12.1918 21.2359 12.1773 21.1764 12.1628 21.1227C12.1367 21.0154 12.1135 20.9283 12.0946 20.8326C12.0758 20.7368 12.0177 20.4699 11.9597 20.1913C11.9309 20.0555 11.8564 19.9337 11.7487 19.8461C11.6411 19.7584 11.5066 19.7103 11.3678 19.7097C11.278 19.7094 11.1892 19.7291 11.1079 19.7674C11.0267 19.8057 10.955 19.8616 10.898 19.9311C10.8411 20.0005 10.8003 20.0818 10.7787 20.169C10.757 20.2561 10.7551 20.347 10.773 20.4351C10.8484 20.8166 10.934 21.2417 11.0181 21.661C11.1415 22.2804 11.2633 22.8869 11.3489 23.325C11.3924 23.5513 11.4708 23.6572 11.6275 23.7065C11.6698 23.7195 11.7138 23.7263 11.758 23.7269C11.8364 23.7199 11.9122 23.6949 11.9793 23.6539C12.0465 23.6129 12.1033 23.5569 12.1454 23.4904C12.2382 23.3772 12.3282 23.267 12.4355 23.164C13.2552 22.324 16.3657 19.1599 17.3058 18.1922Z" fill="#868E96"/>
</g>
<defs>
<clipPath id="clip0_738_168">
<rect width="106.624" height="24" fill="white" transform="translate(0.5 0.102539)"/>
</clipPath>
</defs>
</svg>
