<svg width="30" height="28" viewBox="0 0 30 28" fill="none" xmlns="http://www.w3.org/2000/svg">
<path fill-rule="evenodd" clip-rule="evenodd" d="M5.39291 0H12.134C12.754 0 13.2763 0.416478 13.4337 0.98365L21.2398 0.0204277C21.3499 0.00684643 21.4607 3.71933e-05 21.5716 3.71933e-05C23.0608 3.71933e-05 24.2681 1.20148 24.2681 2.68353V6.53208H25.6163C27.8501 6.53208 29.661 8.33424 29.661 10.5573V23.9748C29.661 26.1978 27.8501 28 25.6163 28H4.04468C1.81086 28 0 26.1978 0 23.9748C0 23.2337 0.603621 22.633 1.34823 22.633C2.09283 22.633 2.69645 23.2337 2.69645 23.9748C2.69645 24.7158 3.30007 25.3165 4.04468 25.3165H25.6163C26.3609 25.3165 26.9645 24.7158 26.9645 23.9748V10.5573C26.9645 9.81629 26.3609 9.21557 25.6163 9.21557H22.9313L22.9198 9.21562L22.9084 9.21557H13.4823V9.39221C13.4823 10.1332 12.8786 10.734 12.134 10.734H5.39291C4.44856 10.734 3.56091 10.4924 2.78893 10.068C2.72923 10.2196 2.69645 10.3846 2.69645 10.5573V13.2408V18.6078C2.69645 19.3488 2.09283 19.9495 1.34823 19.9495C0.603621 19.9495 0 19.3488 0 18.6078V13.2408V10.5573V6.19808C0 6.06833 0.00620709 5.93987 0.0183574 5.813C0.00619939 5.66593 0 5.51717 0 5.36698C0 2.40288 2.41449 0 5.39291 0ZM21.5716 2.68353V6.53208H13.4823V3.68167L21.5716 2.68353ZM10.7857 4.0144V6.53208H7.40988C7.81568 6.30082 8.0891 5.86564 8.0891 5.36692C8.0891 4.98623 7.92979 4.64257 7.6739 4.39836L10.7857 4.0144ZM6.07186 6.53208C5.66606 6.30082 5.39264 5.86564 5.39264 5.36692C5.39264 5.10517 5.46795 4.86093 5.59819 4.65449L3.8542 4.86968C3.31215 4.94165 2.87699 5.34073 2.74087 5.85545C2.79385 6.14217 2.89262 6.41293 3.02935 6.65996C3.35379 6.57649 3.69403 6.53208 4.04468 6.53208H6.07186Z" fill="white"/>
</svg>
