<svg width="19" height="20" viewBox="0 0 19 20" fill="none" xmlns="http://www.w3.org/2000/svg">
<path id="fcebook" d="M16.431 0.60498H2.55896C1.14571 0.60498 0 1.73859 0 3.137V16.8631C0 18.2615 1.14567 19.3951 2.55896 19.3951H9.40059L9.41225 12.6806H7.64924C7.42013 12.6806 7.23417 12.4972 7.23329 12.2705L7.22483 10.1062C7.22395 9.87821 7.41046 9.69296 7.64083 9.69296H9.40063V7.60161C9.40063 5.17462 10.8987 3.85311 13.0867 3.85311H14.8822C15.1119 3.85311 15.2982 4.03738 15.2982 4.26473V6.08975C15.2982 6.31701 15.1121 6.50124 14.8824 6.50138L13.7806 6.50188C12.5906 6.50188 12.3602 7.06138 12.3602 7.88246V9.69301H14.9749C15.2241 9.69301 15.4174 9.90827 15.388 10.1531L15.1287 12.3175C15.1039 12.5246 14.9264 12.6806 14.7157 12.6806H12.3719L12.3602 19.3952H16.4311C17.8443 19.3952 18.99 18.2616 18.99 16.8633V3.137C18.99 1.73859 17.8443 0.60498 16.431 0.60498Z" fill="#212529"/>
</svg>
