<svg width="19" height="20" viewBox="0 0 19 20" fill="none" xmlns="http://www.w3.org/2000/svg">
<path id="Combined Shape" fill-rule="evenodd" clip-rule="evenodd" d="M5.2432 0.600098H13.7566C16.6479 0.600098 19.0001 2.92755 19 5.78822V14.212C19 17.0726 16.6479 19.4001 13.7566 19.4001H5.2432C2.3521 19.4001 0 17.0728 0 14.212V5.78822C0 2.92755 2.3521 0.600098 5.2432 0.600098ZM13.7567 17.7321C15.7184 17.7321 17.3143 16.153 17.3143 14.212H17.3142V5.78822C17.3142 3.8473 15.7183 2.26812 13.7566 2.26812H5.2432C3.28164 2.26812 1.68577 3.8473 1.68577 5.78822V14.212C1.68577 16.153 3.28164 17.7322 5.2432 17.7321H13.7567ZM4.75 10.0002C4.75 7.40853 6.88081 5.3001 9.5 5.3001C12.1192 5.3001 14.25 7.40853 14.25 10.0002C14.25 12.5918 12.1192 14.7001 9.5 14.7001C6.88081 14.7001 4.75 12.5918 4.75 10.0002ZM6.38556 10.0001C6.38556 11.6993 7.78277 13.0816 9.5 13.0816C11.2172 13.0816 12.6144 11.6993 12.6144 10.0001C12.6144 8.3008 11.2173 6.91837 9.5 6.91837C7.78266 6.91837 6.38556 8.3008 6.38556 10.0001ZM13.807 4.07739C14.0274 3.85841 14.3338 3.73343 14.6458 3.73343C14.9589 3.73343 15.2655 3.85841 15.4857 4.07739C15.707 4.29529 15.8333 4.59866 15.8333 4.90843C15.8333 5.21714 15.707 5.5205 15.4857 5.73948C15.2644 5.95739 14.9589 6.08343 14.6458 6.08343C14.3338 6.08343 14.0273 5.95739 13.807 5.73948C13.5857 5.5205 13.4583 5.21724 13.4583 4.90843C13.4583 4.59866 13.5856 4.29529 13.807 4.07739Z" fill="#212529"/>
</svg>
